<svg version="1.1" id="Layer_1" xmlns="http://www.w3.org/2000/svg" xmlns:xlink="http://www.w3.org/1999/xlink" x="0px" y="0px"
	 width="100%" viewBox="0 0 500 500" enable-background="new 0 0 500 500" xml:space="preserve">
<path fill="#0C0C0C" opacity="1.000000" stroke="none" 
	d="
M68.000000,501.000000 
	C58.979103,501.000000 49.958210,501.000000 40.468697,500.531342 
	C40.000053,333.708466 40.000027,167.354233 40.000000,1.000000 
	C49.020893,1.000000 58.041790,1.000000 67.529221,1.405034 
	C67.737923,8.808848 67.291763,15.807239 67.277214,22.806524 
	C67.263695,29.308231 67.895271,35.810677 67.902916,42.313198 
	C67.910561,48.815968 67.330231,55.318840 67.315018,61.822388 
	C67.299812,68.323631 67.784233,74.824913 67.830368,81.327736 
	C67.876579,87.841644 67.600456,94.357155 67.560219,100.872551 
	C67.520081,107.370674 67.581665,113.869637 67.627434,120.368034 
	C67.673347,126.885956 67.845505,133.404327 67.795143,139.921219 
	C67.744904,146.422882 67.344604,152.923264 67.360222,159.423599 
	C67.376244,166.095062 67.888649,172.766479 67.861427,179.436600 
	C67.823601,188.704865 67.317429,197.972015 67.322952,207.239441 
	C67.328476,216.509796 67.895378,225.780045 67.887459,235.050064 
	C67.879539,244.318130 67.343689,253.584702 67.257050,262.853973 
	C67.133949,276.023529 67.202629,289.194977 67.203049,302.365601 
	C67.203468,315.866913 67.228065,329.368195 67.227837,342.869507 
	C67.227615,356.040131 67.205421,369.210754 67.200150,382.381378 
	C67.194809,395.717346 67.198387,409.053314 67.198067,422.389282 
	C67.197746,435.725250 67.092911,449.062256 67.227020,462.396881 
	C67.356445,475.265900 67.732368,488.132385 68.000000,501.000000 
z"/>
<path fill="#686868" opacity="1.000000" stroke="none" 
	d="
M463.000000,501.000000 
	C454.979095,501.000000 446.958191,501.000000 438.468628,500.531342 
	C438.000000,333.708466 438.000000,167.354233 438.000000,1.000000 
	C446.020905,1.000000 454.041809,1.000000 462.531372,1.468657 
	C463.000000,168.291550 463.000000,334.645782 463.000000,501.000000 
z"/>
<path fill="#131313" opacity="1.000000" stroke="none" 
	d="
M68.468636,501.000000 
	C67.732368,488.132385 67.356445,475.265900 67.227020,462.396881 
	C67.092911,449.062256 67.197746,435.725250 67.198067,422.389282 
	C67.198387,409.053314 67.194809,395.717346 67.200150,382.381378 
	C67.205421,369.210754 67.227615,356.040131 67.227837,342.869507 
	C67.228065,329.368195 67.203468,315.866913 67.203049,302.365601 
	C67.202629,289.194977 67.133949,276.023529 67.257050,262.853973 
	C67.343689,253.584702 67.879539,244.318130 67.887459,235.050064 
	C67.895378,225.780045 67.328476,216.509796 67.322952,207.239441 
	C67.317429,197.972015 67.823601,188.704865 67.861427,179.436600 
	C67.888649,172.766479 67.376244,166.095062 67.360222,159.423599 
	C67.344604,152.923264 67.744904,146.422882 67.795143,139.921219 
	C67.845505,133.404327 67.673347,126.885956 67.627434,120.368034 
	C67.581665,113.869637 67.520081,107.370674 67.560219,100.872551 
	C67.600456,94.357155 67.876579,87.841644 67.830368,81.327736 
	C67.784233,74.824913 67.299812,68.323631 67.315018,61.822388 
	C67.330231,55.318840 67.910561,48.815968 67.902916,42.313198 
	C67.895271,35.810677 67.263695,29.308231 67.277214,22.806524 
	C67.291763,15.807239 67.737923,8.808848 67.997879,1.405034 
	C75.354256,1.000000 82.708504,1.000000 90.531517,1.468657 
	C91.000282,73.121025 90.990532,144.304733 91.020874,215.488434 
	C91.023048,220.582977 91.142296,225.691940 91.560806,230.765015 
	C91.739487,232.931046 92.827377,235.022064 93.546066,237.606552 
	C93.548798,247.332413 93.507568,256.598877 93.124680,266.126434 
	C92.188789,271.779938 91.086723,277.171448 91.077423,282.564880 
	C90.960060,350.592590 90.980225,418.620575 91.043320,486.648407 
	C91.047760,491.432556 91.666771,496.216156 92.000000,501.000000 
	C84.312424,501.000000 76.624847,501.000000 68.468636,501.000000 
z"/>
<path fill="#060606" opacity="1.000000" stroke="none" 
	d="
M39.531422,1.000000 
	C40.000027,167.354233 40.000053,333.708466 40.000038,500.531342 
	C32.979053,501.000000 25.958105,501.000000 18.468578,500.532166 
	C18.000000,333.709534 18.000000,167.354767 18.000000,1.000000 
	C25.020948,1.000000 32.041897,1.000000 39.531422,1.000000 
z"/>
<path fill="#626262" opacity="1.000000" stroke="none" 
	d="
M437.531433,1.000000 
	C438.000000,167.354233 438.000000,333.708466 438.000000,500.531342 
	C430.979034,501.000000 423.958099,501.000000 416.468567,500.531342 
	C416.000000,333.708466 416.000000,167.354233 416.000000,1.000000 
	C423.020966,1.000000 430.041901,1.000000 437.531433,1.000000 
z"/>
<path fill="#6D6D6D" opacity="1.000000" stroke="none" 
	d="
M463.468384,501.000000 
	C463.000000,334.645782 463.000000,168.291550 463.000000,1.468657 
	C469.354401,1.000000 475.708801,1.000000 482.531616,1.468657 
	C483.000000,168.291550 483.000000,334.645782 483.000000,501.000000 
	C476.645599,501.000000 470.291199,501.000000 463.468384,501.000000 
z"/>
<path fill="#717171" opacity="1.000000" stroke="none" 
	d="
M483.469727,501.000000 
	C483.000000,334.645782 483.000000,168.291550 483.000000,1.468657 
	C488.995087,1.000000 494.990143,1.000000 500.962708,1.000000 
	C500.962708,167.666672 500.962708,334.333344 500.962708,501.000000 
	C495.263397,501.000000 489.601410,501.000000 483.469727,501.000000 
z"/>
<path fill="#020202" opacity="1.000000" stroke="none" 
	d="
M17.530880,1.000000 
	C18.000000,167.354767 18.000000,333.709534 18.000000,500.532166 
	C12.337988,501.000000 6.675976,501.000000 1.037460,501.000000 
	C1.037460,334.333344 1.037460,167.666656 1.037460,1.000000 
	C6.403866,1.000000 11.732812,1.000000 17.530880,1.000000 
z"/>
<path fill="#5D5D5D" opacity="1.000000" stroke="none" 
	d="
M415.531372,1.000000 
	C416.000000,167.354233 416.000000,333.708466 416.000000,500.531342 
	C411.643097,501.000000 407.286194,501.000000 402.464661,500.531342 
	C402.000000,436.846527 402.018097,373.630371 401.938690,310.414337 
	C401.935242,307.676086 401.034912,304.938965 400.619568,301.854736 
	C408.281158,277.126923 410.872284,252.340195 407.012177,226.967422 
	C404.394592,209.761780 398.734680,193.579010 391.548828,177.854248 
	C392.276886,175.684677 392.952240,173.649536 392.954285,171.613708 
	C393.011230,114.742508 393.000000,57.871250 393.000000,1.000000 
	C400.354248,1.000000 407.708496,1.000000 415.531372,1.000000 
z"/>
<path fill="#181818" opacity="1.000000" stroke="none" 
	d="
M92.468399,501.000000 
	C91.666771,496.216156 91.047760,491.432556 91.043320,486.648407 
	C90.980225,418.620575 90.960060,350.592590 91.077423,282.564880 
	C91.086723,277.171448 92.188789,271.779938 93.284546,266.492920 
	C94.019135,268.742554 94.211494,270.892090 94.491615,273.030151 
	C97.108223,293.000671 103.905312,311.569275 113.287193,329.733521 
	C113.113853,340.518890 113.084999,350.810181 112.924232,361.099365 
	C112.822670,367.599945 112.416374,374.096313 112.345047,380.596741 
	C112.277313,386.771027 112.510269,392.947968 112.533081,399.124023 
	C112.558899,406.113708 112.461823,413.103882 112.485283,420.093597 
	C112.507080,426.586609 112.632294,433.079224 112.684204,439.572235 
	C112.736290,446.086395 112.820457,452.601379 112.768219,459.115021 
	C112.716133,465.608643 112.499443,472.100830 112.378227,478.594086 
	C112.238815,486.062469 112.124962,493.531342 112.000000,501.000000 
	C105.645599,501.000000 99.291206,501.000000 92.468399,501.000000 
z"/>
<path fill="#575757" opacity="1.000000" stroke="none" 
	d="
M392.531372,1.000000 
	C393.000000,57.871250 393.011230,114.742508 392.954285,171.613708 
	C392.952240,173.649536 392.276886,175.684677 391.331879,177.575592 
	C383.758057,167.163300 376.767731,156.895569 369.830811,146.122284 
	C369.922791,97.411140 369.961395,49.205570 370.000000,1.000000 
	C377.354248,1.000000 384.708496,1.000000 392.531372,1.000000 
z"/>
<path fill="#181818" opacity="1.000000" stroke="none" 
	d="
M93.502113,237.147171 
	C92.827377,235.022064 91.739487,232.931046 91.560806,230.765015 
	C91.142296,225.691940 91.023048,220.582977 91.020874,215.488434 
	C90.990532,144.304733 91.000282,73.121025 91.000137,1.468657 
	C96.022095,1.000000 101.044182,1.000000 106.533142,1.468657 
	C107.000000,59.828491 106.984901,117.719688 107.058586,175.610764 
	C107.061356,177.785706 107.926010,179.959518 108.294228,182.490936 
	C99.805565,200.001785 96.072449,218.417114 93.502113,237.147171 
z"/>
<path fill="#1E1E1E" opacity="1.000000" stroke="none" 
	d="
M123.000000,1.000000 
	C130.020950,1.000000 137.041901,1.000000 144.531433,1.468657 
	C145.000000,43.175098 144.978470,84.412926 145.060699,125.650543 
	C145.065018,127.818939 145.949829,129.985580 146.257416,132.455902 
	C138.752075,140.571732 131.414062,148.384720 123.906006,155.801682 
	C123.490547,153.117569 123.032852,150.829681 123.030945,148.541382 
	C122.989922,99.360947 122.999901,50.180470 123.000000,1.000000 
z"/>
<path fill="#535353" opacity="1.000000" stroke="none" 
	d="
M373.000000,501.000000 
	C366.312347,501.000000 359.624725,501.000000 352.468567,500.531342 
	C351.966095,457.606598 351.932129,415.150513 352.058472,372.411255 
	C358.664032,365.798035 365.109375,359.467987 371.654968,353.611664 
	C372.170135,359.358063 372.933411,364.630005 372.945099,369.903564 
	C373.042053,413.602203 373.000000,457.301147 373.000000,501.000000 
z"/>
<path fill="#242424" opacity="1.000000" stroke="none" 
	d="
M146.424728,132.153046 
	C145.949829,129.985580 145.065018,127.818939 145.060699,125.650543 
	C144.978470,84.412926 145.000000,43.175098 145.000000,1.468657 
	C152.354248,1.000000 159.708496,1.000000 167.531372,1.468657 
	C168.012085,39.995598 168.024170,78.053879 167.859543,116.401749 
	C160.596802,121.845245 153.510757,126.999146 146.424728,132.153046 
z"/>
<path fill="#585858" opacity="1.000000" stroke="none" 
	d="
M373.467957,501.000000 
	C373.000000,457.301147 373.042053,413.602203 372.945099,369.903564 
	C372.933411,364.630005 372.170135,359.358063 371.805176,353.337555 
	C377.442169,344.678497 383.029144,336.767303 388.930695,329.110046 
	C389.491943,330.139038 389.941223,330.911011 389.952972,331.689575 
	C390.041534,337.552155 389.973267,343.417480 390.092010,349.279144 
	C390.226990,355.943085 390.698303,362.604889 390.674164,369.266327 
	C390.640564,378.531738 390.082611,387.796600 390.112976,397.060516 
	C390.151886,408.923004 390.747192,420.784393 390.743256,432.646118 
	C390.739258,444.674957 390.087494,456.704071 390.110016,468.732300 
	C390.130157,479.488708 390.682495,490.244141 391.000000,501.000000 
	C385.311951,501.000000 379.623932,501.000000 373.467957,501.000000 
z"/>
<path fill="#242424" opacity="1.000000" stroke="none" 
	d="
M171.000000,501.000000 
	C163.645752,501.000000 156.291504,501.000000 148.468628,500.531342 
	C148.000000,461.874146 147.967636,423.685547 148.043640,385.497162 
	C148.052475,381.053497 148.661041,376.611053 149.310837,372.252991 
	C156.774933,377.499908 163.919754,382.661835 171.047150,388.303223 
	C171.019836,426.188416 171.009918,463.594208 171.000000,501.000000 
z"/>
<path fill="#1C1C1C" opacity="1.000000" stroke="none" 
	d="
M112.467941,501.000000 
	C112.124962,493.531342 112.238815,486.062469 112.378227,478.594086 
	C112.499443,472.100830 112.716133,465.608643 112.768219,459.115021 
	C112.820457,452.601379 112.736290,446.086395 112.684204,439.572235 
	C112.632294,433.079224 112.507080,426.586609 112.485283,420.093597 
	C112.461823,413.103882 112.558899,406.113708 112.533081,399.124023 
	C112.510269,392.947968 112.277313,386.771027 112.345047,380.596741 
	C112.416374,374.096313 112.822670,367.599945 112.924232,361.099365 
	C113.084999,350.810181 113.113853,340.518890 113.550232,329.982666 
	C119.743057,338.106415 125.584183,346.476013 131.088104,355.124512 
	C130.500595,357.511841 130.033737,359.620117 130.031845,361.728760 
	C129.990173,408.152496 130.000000,454.576233 130.000000,501.000000 
	C124.311958,501.000000 118.623917,501.000000 112.467941,501.000000 
z"/>
<path fill="#525252" opacity="1.000000" stroke="none" 
	d="
M369.531586,1.000000 
	C369.961395,49.205570 369.922791,97.411140 369.536957,145.927231 
	C362.243774,139.612915 355.297821,132.988068 348.709167,126.077576 
	C349.377625,123.708099 349.957397,121.624641 349.960236,119.540398 
	C350.014160,80.026993 350.000000,40.513485 350.000000,1.000000 
	C356.354401,1.000000 362.708801,1.000000 369.531586,1.000000 
z"/>
<path fill="#191919" opacity="1.000000" stroke="none" 
	d="
M122.533142,1.000000 
	C122.999901,50.180470 122.989922,99.360947 123.030945,148.541382 
	C123.032852,150.829681 123.490547,153.117569 123.832718,156.129272 
	C118.749321,165.279892 113.569168,173.706879 108.389015,182.133865 
	C107.926010,179.959518 107.061356,177.785706 107.058586,175.610764 
	C106.984901,117.719688 107.000000,59.828491 107.000000,1.468657 
	C112.022095,1.000000 117.044182,1.000000 122.533142,1.000000 
z"/>
<path fill="#292929" opacity="1.000000" stroke="none" 
	d="
M168.036255,116.112160 
	C168.024170,78.053879 168.012085,39.995598 168.000000,1.468657 
	C175.354248,1.000000 182.708496,1.000000 190.531372,1.468657 
	C191.000000,6.088259 190.992081,10.239221 191.001266,14.390144 
	C191.067749,44.440395 191.137695,74.490639 190.935272,104.744583 
	C183.121429,108.669579 175.578842,112.390869 168.036255,116.112160 
z"/>
<path fill="#202020" opacity="1.000000" stroke="none" 
	d="
M130.467941,501.000000 
	C130.000000,454.576233 129.990173,408.152496 130.031845,361.728760 
	C130.033737,359.620117 130.500595,357.511841 131.365906,355.284882 
	C137.651123,360.833588 143.321335,366.500824 148.991547,372.168030 
	C148.661041,376.611053 148.052475,381.053497 148.043640,385.497162 
	C147.967636,423.685547 148.000000,461.874146 148.000000,500.531342 
	C142.311966,501.000000 136.623917,501.000000 130.467941,501.000000 
z"/>
<path fill="#292929" opacity="1.000000" stroke="none" 
	d="
M171.468567,501.000000 
	C171.009918,463.594208 171.019836,426.188416 171.394653,388.372406 
	C178.837143,391.384430 185.914719,394.806641 192.992371,398.683197 
	C192.994965,433.091675 192.997482,467.045837 193.000000,501.000000 
	C185.979050,501.000000 178.958099,501.000000 171.468567,501.000000 
z"/>
<path fill="#2F2F2F" opacity="1.000000" stroke="none" 
	d="
M193.468628,501.000000 
	C192.997482,467.045837 192.994965,433.091675 193.348679,398.701965 
	C200.804092,400.495453 207.903275,402.724426 215.064362,405.369781 
	C215.417511,408.242828 215.957214,410.699036 215.962143,413.156250 
	C216.020859,442.437439 216.000000,471.718719 216.000000,501.000000 
	C208.645752,501.000000 201.291504,501.000000 193.468628,501.000000 
z"/>
<path fill="#4F4F4F" opacity="1.000000" stroke="none" 
	d="
M351.898193,372.694427 
	C351.932129,415.150513 351.966095,457.606598 352.000000,500.531342 
	C345.978851,501.000000 339.957703,501.000000 333.470825,500.586365 
	C333.158722,497.408142 333.409332,494.644836 333.446503,491.878632 
	C333.531525,485.554962 333.527222,479.229889 333.531097,472.905365 
	C333.535400,465.926422 333.502014,458.947479 333.496643,451.968536 
	C333.491791,445.644073 333.464844,439.319275 333.516815,432.995209 
	C333.571533,426.333862 333.771027,419.673431 333.791687,413.012238 
	C333.812805,406.213379 333.826324,399.408691 333.551483,392.618378 
	C333.473267,390.686096 332.377533,388.795044 331.941345,386.596069 
	C338.722260,381.769531 345.310211,377.231964 351.898193,372.694427 
z"/>
<path fill="#5B5B5B" opacity="1.000000" stroke="none" 
	d="
M391.458069,501.000000 
	C390.682495,490.244141 390.130157,479.488708 390.110016,468.732300 
	C390.087494,456.704071 390.739258,444.674957 390.743256,432.646118 
	C390.747192,420.784393 390.151886,408.923004 390.112976,397.060516 
	C390.082611,387.796600 390.640564,378.531738 390.674164,369.266327 
	C390.698303,362.604889 390.226990,355.943085 390.092010,349.279144 
	C389.973267,343.417480 390.041534,337.552155 389.952972,331.689575 
	C389.941223,330.911011 389.491943,330.139038 389.035339,328.761810 
	C392.734406,319.506866 396.643372,310.854095 400.552368,302.201324 
	C401.034912,304.938965 401.935242,307.676086 401.938690,310.414337 
	C402.018097,373.630371 402.000000,436.846527 402.000000,500.531342 
	C398.638702,501.000000 395.277435,501.000000 391.458069,501.000000 
z"/>
<path fill="#4E4E4E" opacity="1.000000" stroke="none" 
	d="
M349.532043,1.000000 
	C350.000000,40.513485 350.014160,80.026993 349.960236,119.540398 
	C349.957397,121.624641 349.377625,123.708099 348.413940,125.938499 
	C342.065460,122.110023 336.369476,118.134972 330.993286,113.865341 
	C331.542053,111.622627 331.968506,109.674713 331.970703,107.726334 
	C332.010803,72.150925 332.000000,36.575455 332.000000,1.000000 
	C337.688049,1.000000 343.376068,1.000000 349.532043,1.000000 
z"/>
<path fill="#2E2E2E" opacity="1.000000" stroke="none" 
	d="
M191.206528,104.540894 
	C191.137695,74.490639 191.067749,44.440395 191.001266,14.390144 
	C190.992081,10.239221 191.000000,6.088259 191.000000,1.468657 
	C197.687637,1.000000 204.375290,1.000000 211.587173,1.381248 
	C212.384644,8.237339 212.905502,14.713264 212.877228,21.186790 
	C212.825531,33.022491 212.341064,44.855824 212.236435,56.691902 
	C212.115936,70.320824 212.211380,83.951660 211.889114,97.737320 
	C204.778961,100.108955 197.992737,102.324921 191.206528,104.540894 
z"/>
<path fill="#424242" opacity="1.000000" stroke="none" 
	d="
M300.000000,501.000000 
	C293.312347,501.000000 286.624725,501.000000 279.468536,500.531342 
	C278.948853,468.859253 278.897736,437.655823 279.190125,406.297089 
	C285.995911,404.665497 292.458191,403.189209 299.081970,402.118103 
	C299.495636,404.642456 299.964203,406.761322 299.967499,408.880920 
	C300.014954,439.587219 300.000000,470.293610 300.000000,501.000000 
z"/>
<path fill="#333333" opacity="1.000000" stroke="none" 
	d="
M212.213058,97.581665 
	C212.211380,83.951660 212.115936,70.320824 212.236435,56.691902 
	C212.341064,44.855824 212.825531,33.022491 212.877228,21.186790 
	C212.905502,14.713264 212.384644,8.237339 212.055710,1.381248 
	C219.354248,1.000000 226.708496,1.000000 234.515167,1.421900 
	C234.645065,4.803974 234.063980,7.762393 234.043884,10.724620 
	C233.946564,25.055426 233.865494,39.388885 234.039307,53.718243 
	C234.200577,67.014168 234.691071,80.306114 234.669220,93.724274 
	C226.938904,95.093056 219.575989,96.337357 212.213058,97.581665 
z"/>
<path fill="#414141" opacity="1.000000" stroke="none" 
	d="
M275.000000,1.000000 
	C281.687653,1.000000 288.375275,1.000000 295.531464,1.468657 
	C296.000000,31.514645 296.026611,61.092037 295.956451,90.669197 
	C295.949829,93.452408 295.333557,96.234177 294.596313,99.025963 
	C287.394104,97.579552 280.595886,96.123787 273.880737,94.213287 
	C274.309235,91.140350 274.948181,88.522896 274.954865,85.903824 
	C275.027130,57.602695 275.000000,29.301313 275.000000,1.000000 
z"/>
<path fill="#393939" opacity="1.000000" stroke="none" 
	d="
M258.000000,501.000000 
	C251.312363,501.000000 244.624710,501.000000 237.466187,500.589844 
	C236.698227,493.056976 236.135864,485.933167 236.163574,478.811707 
	C236.210114,466.847870 236.712723,454.886536 236.872833,442.922180 
	C237.026688,431.423340 236.989441,419.921967 237.503021,408.375061 
	C244.646011,408.570038 251.322128,408.811584 257.998810,409.518433 
	C257.999573,440.322510 257.999786,470.661255 258.000000,501.000000 
z"/>
<path fill="#3E3E3E" opacity="1.000000" stroke="none" 
	d="
M258.468536,501.000000 
	C257.999786,470.661255 257.999573,440.322510 258.415710,409.393097 
	C265.503540,408.019073 272.175079,407.235748 278.846588,406.452393 
	C278.897736,437.655823 278.948853,468.859253 279.000000,500.531342 
	C272.312347,501.000000 265.624725,501.000000 258.468536,501.000000 
z"/>
<path fill="#3D3D3D" opacity="1.000000" stroke="none" 
	d="
M274.531464,1.000000 
	C275.000000,29.301313 275.027130,57.602695 274.954865,85.903824 
	C274.948181,88.522896 274.309235,91.140350 273.437958,94.196350 
	C266.606720,94.040802 260.301392,93.447449 253.997192,92.394592 
	C253.998901,61.623394 253.999451,31.311697 254.000000,1.000000 
	C260.687653,1.000000 267.375275,1.000000 274.531464,1.000000 
z"/>
<path fill="#343434" opacity="1.000000" stroke="none" 
	d="
M237.036179,408.421692 
	C236.989441,419.921967 237.026688,431.423340 236.872833,442.922180 
	C236.712723,454.886536 236.210114,466.847870 236.163574,478.811707 
	C236.135864,485.933167 236.698227,493.056976 236.997650,500.589844 
	C230.312363,501.000000 223.624710,501.000000 216.468536,501.000000 
	C216.000000,471.718719 216.020859,442.437439 215.962143,413.156250 
	C215.957214,410.699036 215.417511,408.242828 215.478973,405.367859 
	C222.899841,406.106964 229.968002,407.264343 237.036179,408.421692 
z"/>
<path fill="#464646" opacity="1.000000" stroke="none" 
	d="
M295.000305,99.016609 
	C295.333557,96.234177 295.949829,93.452408 295.956451,90.669197 
	C296.026611,61.092037 296.000000,31.514645 296.000000,1.468657 
	C302.021149,1.000000 308.042297,1.000000 314.531464,1.410405 
	C314.809052,6.402673 314.434143,10.985744 314.464172,15.566163 
	C314.542328,27.493799 314.877197,39.419712 314.961823,51.347363 
	C315.054504,64.412247 315.196503,77.483681 314.870178,90.541107 
	C314.747437,95.453278 313.371124,100.334122 312.209076,105.188843 
	C306.234650,103.104485 300.617493,101.060547 295.000305,99.016609 
z"/>
<path fill="#4A4A4A" opacity="1.000000" stroke="none" 
	d="
M312.566284,105.229248 
	C313.371124,100.334122 314.747437,95.453278 314.870178,90.541107 
	C315.196503,77.483681 315.054504,64.412247 314.961823,51.347363 
	C314.877197,39.419712 314.542328,27.493799 314.464172,15.566163 
	C314.434143,10.985744 314.809052,6.402673 314.999756,1.410405 
	C320.354919,1.000000 325.709869,1.000000 331.532410,1.000000 
	C332.000000,36.575455 332.010803,72.150925 331.970703,107.726334 
	C331.968506,109.674713 331.542053,111.622627 330.648132,113.820908 
	C324.177521,111.123795 318.371918,108.176521 312.566284,105.229248 
z"/>
<path fill="#474747" opacity="1.000000" stroke="none" 
	d="
M300.467957,501.000000 
	C300.000000,470.293610 300.014954,439.587219 299.967499,408.880920 
	C299.964203,406.761322 299.495636,404.642456 299.347290,401.880249 
	C305.190582,399.105347 310.930115,396.973419 316.989929,395.135529 
	C317.540161,397.377014 317.968109,399.324188 317.970520,401.271912 
	C318.011627,434.514587 318.000000,467.757294 318.000000,501.000000 
	C312.311951,501.000000 306.623932,501.000000 300.467957,501.000000 
z"/>
<path fill="#383838" opacity="1.000000" stroke="none" 
	d="
M253.531723,1.000000 
	C253.999451,31.311697 253.998901,61.623394 253.533539,92.462769 
	C247.058029,93.193565 241.047318,93.396683 235.036606,93.599808 
	C234.691071,80.306114 234.200577,67.014168 234.039307,53.718243 
	C233.865494,39.388885 233.946564,25.055426 234.043884,10.724620 
	C234.063980,7.762393 234.645065,4.803974 234.983795,1.421900 
	C241.021149,1.000000 247.042297,1.000000 253.531723,1.000000 
z"/>
<path fill="#4B4B4B" opacity="1.000000" stroke="none" 
	d="
M318.466125,501.000000 
	C318.000000,467.757294 318.011627,434.514587 317.970520,401.271912 
	C317.968109,399.324188 317.540161,397.377014 317.220764,394.860779 
	C322.003632,391.822998 326.876038,389.354034 331.748413,386.885071 
	C332.377533,388.795044 333.473267,390.686096 333.551483,392.618378 
	C333.826324,399.408691 333.812805,406.213379 333.791687,413.012238 
	C333.771027,419.673431 333.571533,426.333862 333.516815,432.995209 
	C333.464844,439.319275 333.491791,445.644073 333.496643,451.968536 
	C333.502014,458.947479 333.535400,465.926422 333.531097,472.905365 
	C333.527222,479.229889 333.531525,485.554962 333.446503,491.878632 
	C333.409332,494.644836 333.158722,497.408142 333.002533,500.586365 
	C328.310760,501.000000 323.621490,501.000000 318.466125,501.000000 
z"/>
<path fill="#F7F3F1" opacity="1.000000" stroke="none" 
	d="
M331.941345,386.596069 
	C326.876038,389.354034 322.003632,391.822998 316.900452,394.566711 
	C310.930115,396.973419 305.190582,399.105347 299.185791,401.475098 
	C292.458191,403.189209 285.995911,404.665497 279.190125,406.297119 
	C272.175079,407.235748 265.503540,408.019073 258.415161,408.927795 
	C251.322128,408.811584 244.646011,408.570038 237.503021,408.375061 
	C229.968002,407.264343 222.899841,406.106964 215.417053,404.951477 
	C207.903275,402.724426 200.804092,400.495453 193.348602,398.247681 
	C185.914719,394.806641 178.837143,391.384430 171.412064,387.893005 
	C163.919754,382.661835 156.774933,377.499908 149.310822,372.252991 
	C143.321335,366.500824 137.651123,360.833588 131.703110,355.005981 
	C125.584183,346.476013 119.743057,338.106415 113.638901,329.487671 
	C103.905312,311.569275 97.108223,293.000671 94.491615,273.030151 
	C94.211494,270.892090 94.019135,268.742554 93.626205,266.231842 
	C93.507568,256.598877 93.548798,247.332413 93.546066,237.606552 
	C96.072449,218.417114 99.805565,200.001785 108.294228,182.490936 
	C113.569168,173.706879 118.749321,165.279892 124.002747,156.525299 
	C131.414062,148.384720 138.752075,140.571732 146.257416,132.455902 
	C153.510757,126.999146 160.596802,121.845245 167.859543,116.401749 
	C175.578842,112.390869 183.121429,108.669579 190.935272,104.744591 
	C197.992737,102.324921 204.778961,100.108955 211.889114,97.737320 
	C219.575989,96.337357 226.938904,95.093056 234.669220,93.724274 
	C241.047318,93.396683 247.058029,93.193565 253.532379,92.922272 
	C260.301392,93.447449 266.606720,94.040802 273.354858,94.651085 
	C280.595886,96.123787 287.394104,97.579552 294.596313,99.025963 
	C300.617493,101.060547 306.234650,103.104485 312.209045,105.188835 
	C318.371918,108.176521 324.177521,111.123795 330.328308,114.115494 
	C336.369476,118.134972 342.065460,122.110023 348.056671,126.224152 
	C355.297821,132.988068 362.243774,139.612915 369.483582,146.432800 
	C376.767731,156.895569 383.758057,167.163300 390.965393,177.709717 
	C398.734680,193.579010 404.394592,209.761780 407.012177,226.967422 
	C410.872284,252.340195 408.281158,277.126923 400.619537,301.854736 
	C396.643372,310.854095 392.734406,319.506866 388.720764,328.507874 
	C383.029144,336.767303 377.442169,344.678497 371.704956,352.863831 
	C365.109375,359.467987 358.664032,365.798035 352.058441,372.411255 
	C345.310211,377.231964 338.722260,381.769531 331.941345,386.596069 
M113.014458,228.878357 
	C112.958809,230.709366 113.103081,232.572357 112.815933,234.366318 
	C110.471413,249.013550 111.185944,263.586731 114.023628,278.061157 
	C125.895195,338.615326 176.871658,385.452667 240.092728,390.005829 
	C266.314636,391.894318 291.103912,387.144958 314.521271,375.162262 
	C315.931641,374.440552 317.687042,374.393127 319.087799,374.736115 
	C310.874359,378.705872 302.946442,383.481628 294.399261,386.509308 
	C251.683487,401.640717 210.492264,398.399567 172.103348,373.644440 
	C161.598053,366.870117 152.873123,357.352448 143.190140,349.262512 
	C142.011383,348.277649 139.951309,348.347626 138.299683,347.928741 
	C138.489822,349.657837 138.541672,351.419373 138.935654,353.100708 
	C139.101883,353.810181 139.992584,354.347595 140.548065,354.968536 
	C181.898697,401.192261 248.494354,413.771942 304.668793,388.937622 
	C369.551056,360.253693 409.891022,290.004242 395.942657,216.377304 
	C383.013336,148.129547 326.050659,100.053185 257.899841,100.591988 
	C192.974182,101.105293 146.501755,133.700333 117.874352,191.579987 
	C105.558090,216.481323 101.955391,243.239136 104.122314,270.781738 
	C105.223412,284.777161 108.202232,298.414642 113.897285,311.316254 
	C114.490311,312.659698 116.575569,313.344452 117.968445,314.334808 
	C118.406967,312.725647 119.647728,310.804657 119.161926,309.554749 
	C113.252220,294.349823 109.676483,278.578064 109.735710,262.346527 
	C109.777519,250.889465 111.779488,239.439529 113.014458,228.878357 
z"/>
<path fill="#FECC00" opacity="1.000000" stroke="none" 
	d="
M319.281891,374.031952 
	C317.687042,374.393127 315.931641,374.440552 314.521271,375.162262 
	C291.103912,387.144958 266.314636,391.894318 240.092728,390.005829 
	C176.871658,385.452667 125.895195,338.615326 114.023628,278.061157 
	C111.185944,263.586731 110.471413,249.013550 112.815933,234.366318 
	C113.103081,232.572357 112.958809,230.709366 113.006721,227.995300 
	C113.218330,216.008408 117.838158,206.126709 122.162582,196.314529 
	C130.374481,177.681656 141.213867,160.730728 157.069901,147.530655 
	C164.196167,141.598068 171.667023,136.079407 179.362656,130.263657 
	C181.729019,129.384750 183.812332,128.801727 185.684921,127.817688 
	C218.452728,110.598351 252.953339,106.971886 288.345734,116.727226 
	C349.383759,133.551392 390.299347,188.308884 390.141205,251.618622 
	C390.122437,259.129547 389.379974,266.638702 389.022522,274.534363 
	C388.968201,276.227417 389.130341,277.626129 388.717529,278.827301 
	C385.953796,286.869171 382.816010,294.790161 380.274597,302.899231 
	C375.310760,318.737732 365.662811,331.789642 355.241486,344.153412 
	C346.655975,354.339172 336.583984,363.201294 324.656006,370.078674 
	C322.566956,371.382050 320.844818,372.734009 319.152557,374.043274 
	C319.182465,374.000580 319.281891,374.031952 319.281891,374.031952 
M272.726227,244.161758 
	C273.389160,249.823441 273.446533,255.646729 274.901154,261.097107 
	C276.128418,265.695801 280.218903,268.273682 285.127411,268.597565 
	C290.116455,268.926727 293.690643,266.423737 296.112366,262.200317 
	C297.560028,259.675659 298.890106,257.083527 300.534760,254.036911 
	C302.135345,266.207428 306.495667,268.963715 314.773895,263.944153 
	C314.454559,260.391663 313.823792,256.950043 313.911896,253.526947 
	C314.048462,248.221481 314.817505,242.935242 315.063385,237.629028 
	C315.511841,227.949890 312.602783,225.521957 302.767090,227.270615 
	C302.767090,229.036942 302.767090,230.843491 302.767090,232.780487 
	C294.946014,227.361664 290.610718,226.295074 284.505768,230.305267 
	C280.398102,233.003494 277.407562,237.402374 274.005035,240.232590 
	C274.298737,236.111572 272.873047,233.011230 268.685944,231.767929 
	C262.803864,230.021301 259.249359,233.212280 257.091736,236.950012 
	C252.613861,235.661942 248.550461,234.493103 244.554321,233.343628 
	C243.784714,242.189636 243.120987,249.818771 242.503036,256.921539 
	C236.954193,254.669769 231.958633,252.929977 227.261475,250.590912 
	C225.453308,249.690506 223.919693,247.604614 223.080627,245.698135 
	C222.735306,244.913559 224.384903,242.249207 225.416824,242.065262 
	C227.685928,241.660751 230.386414,241.748444 232.435318,242.680527 
	C233.925446,243.358444 234.654083,245.710251 236.638489,248.692963 
	C238.645477,245.794205 241.255081,243.685928 241.435379,241.387131 
	C241.727921,237.657089 238.350876,236.189133 234.960968,235.886124 
	C226.858002,235.161819 219.482224,237.103424 214.086349,241.618622 
	C209.339615,240.493103 205.386536,239.555771 201.491882,238.632294 
	C200.887787,246.030853 200.333923,252.306442 199.876740,258.589081 
	C199.563477,262.894196 198.759079,267.302887 199.386047,271.483551 
	C199.748688,273.901733 202.083755,277.046417 204.300079,277.925598 
	C207.656784,279.257111 211.709351,278.980743 214.002563,275.219269 
	C224.640045,277.482758 234.584579,277.267120 242.508713,268.406860 
	C245.884735,274.023834 250.202225,274.813538 255.766556,271.287323 
	C255.766556,263.748169 255.374451,256.459381 255.981842,249.254822 
	C256.190887,246.775299 258.893738,244.506027 260.457367,242.140717 
	C262.742249,243.741638 265.021088,245.351425 267.321411,246.929840 
	C267.553345,247.088989 267.915436,247.058456 268.217133,247.115936 
	C268.562408,247.456894 268.907715,247.797836 269.253021,248.138794 
	C270.158203,246.722580 271.063354,245.306381 272.726227,244.161758 
M174.848938,244.143555 
	C173.430206,245.208313 172.011475,246.273071 170.256821,247.589951 
	C170.256821,244.552017 170.219482,241.963058 170.263535,239.375504 
	C170.421356,230.104019 167.933899,227.894669 158.286453,228.762451 
	C157.838089,236.371048 157.391251,243.975464 156.941376,251.579712 
	C156.656219,256.400269 156.048355,261.227112 156.147263,266.039581 
	C156.334000,275.125641 161.457306,281.393127 169.129425,282.558258 
	C180.351318,284.262482 193.443649,276.246246 196.548370,265.317322 
	C198.717911,257.680298 197.812393,250.199646 191.816788,244.489197 
	C186.885666,239.792603 181.077667,241.180832 174.848938,244.143555 
M344.406494,228.569199 
	C344.583557,227.072403 344.760620,225.575623 344.979645,223.723953 
	C342.010529,223.972839 339.776550,224.160126 337.578796,224.344360 
	C335.490356,213.260651 333.092621,211.281097 324.039917,213.018143 
	C324.358826,217.059235 324.678986,221.116211 325.024719,225.497253 
	C320.516907,226.009048 316.345886,226.503082 317.419342,232.375702 
	C319.891052,232.258957 321.939941,232.162186 324.412628,232.045395 
	C324.031006,235.151627 323.546692,237.752075 323.424255,240.369461 
	C323.170380,245.798172 322.480469,251.315262 323.154114,256.646362 
	C323.762054,261.457092 328.551086,264.462067 333.371216,264.531586 
	C338.898315,264.611267 343.269287,261.777649 344.836792,257.098663 
	C336.677673,257.214447 334.936646,255.573532 335.009430,247.400421 
	C335.034454,244.590393 335.843628,241.770905 335.726898,238.979477 
	C335.483795,233.164963 337.695496,229.645874 344.406494,228.569199 
M212.440872,230.707397 
	C214.645966,227.214508 215.274963,223.757706 211.185150,221.296799 
	C207.889297,219.313614 204.437485,219.403534 201.814621,222.660095 
	C199.793732,225.169281 199.045670,227.998795 201.316742,230.820404 
	C203.726151,233.813858 207.831284,233.948593 212.440872,230.707397 
z"/>
<path fill="#140A22" opacity="1.000000" stroke="none" 
	d="
M325.022888,370.127289 
	C336.583984,363.201294 346.655975,354.339172 355.241486,344.153412 
	C365.662811,331.789642 375.310760,318.737732 380.274597,302.899231 
	C382.816010,294.790161 385.953796,286.869171 388.717529,278.827301 
	C389.130341,277.626129 388.968201,276.227417 389.379852,274.342804 
	C393.366272,256.327087 394.136139,238.847626 390.973419,221.211044 
	C385.745422,192.057571 373.429932,166.387741 352.243408,145.663864 
	C311.386017,105.698593 252.769547,95.290916 200.251007,118.281731 
	C192.820740,121.534454 186.054901,126.304939 178.981537,130.372925 
	C171.667023,136.079407 164.196167,141.598068 157.069901,147.530655 
	C141.213867,160.730728 130.374481,177.681656 122.162582,196.314529 
	C117.838158,206.126709 113.218330,216.008408 112.952667,227.549316 
	C111.779488,239.439529 109.777519,250.889465 109.735710,262.346527 
	C109.676483,278.578064 113.252220,294.349823 119.161926,309.554749 
	C119.647728,310.804657 118.406967,312.725647 117.968445,314.334808 
	C116.575569,313.344452 114.490311,312.659698 113.897285,311.316254 
	C108.202232,298.414642 105.223412,284.777161 104.122314,270.781738 
	C101.955391,243.239136 105.558090,216.481323 117.874352,191.579987 
	C146.501755,133.700333 192.974182,101.105293 257.899841,100.591988 
	C326.050659,100.053185 383.013336,148.129547 395.942657,216.377304 
	C409.891022,290.004242 369.551056,360.253693 304.668793,388.937622 
	C248.494354,413.771942 181.898697,401.192261 140.548065,354.968536 
	C139.992584,354.347595 139.101883,353.810181 138.935654,353.100708 
	C138.541672,351.419373 138.489822,349.657837 138.299683,347.928741 
	C139.951309,348.347626 142.011383,348.277649 143.190140,349.262512 
	C152.873123,357.352448 161.598053,366.870117 172.103348,373.644440 
	C210.492264,398.399567 251.683487,401.640717 294.399261,386.509308 
	C302.946442,383.481628 310.874359,378.705872 319.184845,374.384033 
	C319.281891,374.031952 319.182465,374.000580 319.494354,374.104309 
	C321.545105,372.847778 323.283997,371.487518 325.022888,370.127289 
z"/>
<path fill="#100418" opacity="1.000000" stroke="none" 
	d="
M271.968567,243.890182 
	C271.063354,245.306381 270.158203,246.722580 269.253021,248.138794 
	C268.907715,247.797836 268.562408,247.456894 268.217133,247.115936 
	C267.915436,247.058456 267.553345,247.088989 267.321411,246.929840 
	C265.021088,245.351425 262.742249,243.741638 260.457336,242.140717 
	C258.893738,244.506027 256.190887,246.775299 255.981842,249.254822 
	C255.374451,256.459381 255.766556,263.748169 255.766556,271.287323 
	C250.202225,274.813538 245.884735,274.023834 242.508713,268.406860 
	C234.584579,277.267120 224.640045,277.482758 214.002563,275.219269 
	C211.709351,278.980743 207.656784,279.257111 204.300079,277.925598 
	C202.083755,277.046417 199.748688,273.901733 199.386047,271.483551 
	C198.759079,267.302887 199.563477,262.894196 199.876740,258.589081 
	C200.333923,252.306442 200.887787,246.030853 201.491882,238.632294 
	C205.386536,239.555771 209.339615,240.493103 214.086349,241.618622 
	C219.482224,237.103424 226.858002,235.161819 234.960968,235.886124 
	C238.350876,236.189133 241.727921,237.657089 241.435379,241.387131 
	C241.255081,243.685928 238.645477,245.794205 236.638489,248.692963 
	C234.654083,245.710251 233.925446,243.358444 232.435318,242.680527 
	C230.386414,241.748444 227.685928,241.660751 225.416824,242.065262 
	C224.384903,242.249207 222.735306,244.913559 223.080627,245.698135 
	C223.919693,247.604614 225.453308,249.690506 227.261475,250.590912 
	C231.958633,252.929977 236.954193,254.669769 242.503036,256.921539 
	C243.120987,249.818771 243.784714,242.189636 244.554321,233.343628 
	C248.550461,234.493103 252.613861,235.661942 257.091736,236.950012 
	C259.249359,233.212280 262.803864,230.021301 268.685944,231.767929 
	C272.873047,233.011230 274.298737,236.111572 273.694031,240.781326 
	C272.911499,242.183441 272.440033,243.036819 271.968567,243.890182 
M217.768509,257.838867 
	C216.293137,256.822357 214.817749,255.805847 212.799774,254.415497 
	C212.440842,258.067413 212.129654,261.233490 211.804825,264.538422 
	C214.423859,263.951294 216.443787,263.498505 218.395584,263.060974 
	C219.071335,264.805084 219.199188,266.505920 220.090973,267.151459 
	C221.947250,268.495239 224.167633,269.908081 226.318390,270.046204 
	C227.500671,270.122101 230.037354,267.463013 229.856125,266.394501 
	C229.530914,264.477142 227.962997,262.300751 226.281342,261.197937 
	C223.991013,259.696014 221.107025,259.099335 217.768509,257.838867 
z"/>
<path fill="#F7F1EA" opacity="1.000000" stroke="none" 
	d="
M179.362656,130.263672 
	C186.054901,126.304939 192.820740,121.534454 200.251007,118.281731 
	C252.769547,95.290916 311.386017,105.698593 352.243408,145.663864 
	C373.429932,166.387741 385.745422,192.057571 390.973419,221.211044 
	C394.136139,238.847626 393.366272,256.327087 389.330322,273.957092 
	C389.379974,266.638702 390.122437,259.129547 390.141205,251.618622 
	C390.299347,188.308884 349.383759,133.551392 288.345734,116.727226 
	C252.953339,106.971886 218.452728,110.598351 185.684921,127.817688 
	C183.812332,128.801727 181.729019,129.384750 179.362656,130.263672 
z"/>
<path fill="#100418" opacity="1.000000" stroke="none" 
	d="
M175.181534,243.975815 
	C181.077667,241.180832 186.885666,239.792603 191.816788,244.489197 
	C197.812393,250.199646 198.717911,257.680298 196.548370,265.317322 
	C193.443649,276.246246 180.351318,284.262482 169.129425,282.558258 
	C161.457306,281.393127 156.334000,275.125641 156.147263,266.039581 
	C156.048355,261.227112 156.656219,256.400269 156.941376,251.579712 
	C157.391251,243.975464 157.838089,236.371048 158.286453,228.762451 
	C167.933899,227.894669 170.421356,230.104019 170.263535,239.375504 
	C170.219482,241.963058 170.256821,244.552017 170.256821,247.589951 
	C172.011475,246.273071 173.430206,245.208313 175.181534,243.975815 
M184.785568,254.226608 
	C183.307816,252.213196 181.752563,248.503250 180.369705,248.566422 
	C178.037201,248.672989 175.175430,250.704056 173.673035,252.757477 
	C170.159439,257.559845 168.294617,263.220520 169.796997,269.195740 
	C170.412491,271.643707 172.676849,275.644684 173.943909,275.552185 
	C176.592667,275.358826 180.494141,273.467468 181.344498,271.285156 
	C183.329117,266.191986 183.814835,260.514709 184.785568,254.226608 
z"/>
<path fill="#120618" opacity="1.000000" stroke="none" 
	d="
M272.347412,244.025970 
	C272.440033,243.036819 272.911499,242.183441 273.650116,241.185242 
	C277.407562,237.402374 280.398102,233.003494 284.505768,230.305267 
	C290.610718,226.295074 294.946014,227.361664 302.767090,232.780487 
	C302.767090,230.843491 302.767090,229.036942 302.767090,227.270615 
	C312.602783,225.521957 315.511841,227.949890 315.063385,237.629028 
	C314.817505,242.935242 314.048462,248.221481 313.911896,253.526947 
	C313.823792,256.950043 314.454559,260.391663 314.773895,263.944153 
	C306.495667,268.963715 302.135345,266.207428 300.534760,254.036911 
	C298.890106,257.083527 297.560028,259.675659 296.112366,262.200317 
	C293.690643,266.423737 290.116455,268.926727 285.127411,268.597565 
	C280.218903,268.273682 276.128418,265.695801 274.901154,261.097107 
	C273.446533,255.646729 273.389160,249.823441 272.347412,244.025970 
M293.988220,257.640564 
	C296.310425,252.775177 298.846222,247.996658 300.873657,243.011398 
	C302.065033,240.081970 302.680847,236.546600 299.043152,234.702606 
	C295.425140,232.868561 291.914856,233.951569 289.004791,236.610962 
	C284.577484,240.656982 282.990417,249.687531 285.805450,255.065002 
	C287.402161,258.115173 289.607605,260.209686 293.988220,257.640564 
z"/>
<path fill="#120618" opacity="1.000000" stroke="none" 
	d="
M344.078552,228.828156 
	C337.695496,229.645874 335.483795,233.164963 335.726898,238.979477 
	C335.843628,241.770905 335.034454,244.590393 335.009430,247.400421 
	C334.936646,255.573532 336.677673,257.214447 344.836792,257.098663 
	C343.269287,261.777649 338.898315,264.611267 333.371216,264.531586 
	C328.551086,264.462067 323.762054,261.457092 323.154114,256.646362 
	C322.480469,251.315262 323.170380,245.798172 323.424255,240.369461 
	C323.546692,237.752075 324.031006,235.151627 324.412628,232.045395 
	C321.939941,232.162186 319.891052,232.258957 317.419342,232.375702 
	C316.345886,226.503082 320.516907,226.009048 325.024719,225.497253 
	C324.678986,221.116211 324.358826,217.059235 324.039917,213.018143 
	C333.092621,211.281097 335.490356,213.260651 337.578796,224.344360 
	C339.776550,224.160126 342.010529,223.972839 344.979645,223.723953 
	C344.760620,225.575623 344.583557,227.072403 344.078552,228.828156 
z"/>
<path fill="#130718" opacity="1.000000" stroke="none" 
	d="
M212.193359,230.993469 
	C207.831284,233.948593 203.726151,233.813858 201.316742,230.820404 
	C199.045670,227.998795 199.793732,225.169281 201.814621,222.660095 
	C204.437485,219.403534 207.889297,219.313614 211.185150,221.296799 
	C215.274963,223.757706 214.645966,227.214508 212.193359,230.993469 
z"/>
<path fill="#F7F3F1" opacity="1.000000" stroke="none" 
	d="
M324.656006,370.078674 
	C323.283997,371.487518 321.545105,372.847778 319.464447,374.147003 
	C320.844818,372.734009 322.566956,371.382050 324.656006,370.078674 
z"/>
<path fill="#F4C301" opacity="1.000000" stroke="none" 
	d="
M218.123047,257.976685 
	C221.107025,259.099335 223.991013,259.696014 226.281342,261.197937 
	C227.962997,262.300751 229.530914,264.477142 229.856125,266.394501 
	C230.037354,267.463013 227.500671,270.122101 226.318390,270.046204 
	C224.167633,269.908081 221.947250,268.495239 220.090973,267.151459 
	C219.199188,266.505920 219.071335,264.805084 218.395584,263.060974 
	C216.443787,263.498505 214.423859,263.951294 211.804825,264.538422 
	C212.129654,261.233490 212.440842,258.067413 212.799774,254.415497 
	C214.817749,255.805847 216.293137,256.822357 218.123047,257.976685 
z"/>
<path fill="#F8C601" opacity="1.000000" stroke="none" 
	d="
M184.846619,254.650330 
	C183.814835,260.514709 183.329117,266.191986 181.344498,271.285156 
	C180.494141,273.467468 176.592667,275.358826 173.943909,275.552185 
	C172.676849,275.644684 170.412491,271.643707 169.796997,269.195740 
	C168.294617,263.220520 170.159439,257.559845 173.673035,252.757477 
	C175.175430,250.704056 178.037201,248.672989 180.369705,248.566422 
	C181.752563,248.503250 183.307816,252.213196 184.846619,254.650330 
z"/>
<path fill="#F8C601" opacity="1.000000" stroke="none" 
	d="
M293.680969,257.853516 
	C289.607605,260.209686 287.402161,258.115173 285.805450,255.065002 
	C282.990417,249.687531 284.577484,240.656982 289.004791,236.610962 
	C291.914856,233.951569 295.425140,232.868561 299.043152,234.702606 
	C302.680847,236.546600 302.065033,240.081970 300.873657,243.011398 
	C298.846222,247.996658 296.310425,252.775177 293.680969,257.853516 
z"/>
</svg>